<?xml version="1.0" encoding="utf-8"?>
<!-- Generator: Adobe Illustrator 24.2.3, SVG Export Plug-In . SVG Version: 6.00 Build 0)  -->
<svg version="1.1" id="Layer_1" xmlns="http://www.w3.org/2000/svg" xmlns:xlink="http://www.w3.org/1999/xlink" x="0px" y="0px"
	 viewBox="0 0 300 100" style="enable-background:new 0 0 300 100;" xml:space="preserve">
<style type="text/css">
	.st0{fill:#FFFFFF;}
	.st1{fill:#FFFFFF;stroke:#FFFFFF;stroke-miterlimit:10;}
	.st2{clip-path:url(#SVGID_2_);fill:url(#SVGID_3_);stroke:#FFFFFF;stroke-miterlimit:10;}
	.st3{clip-path:url(#SVGID_2_);fill:url(#SVGID_4_);stroke:#FFFFFF;stroke-miterlimit:10;}
	.st4{clip-path:url(#SVGID_2_);fill:url(#SVGID_5_);stroke:#FFFFFF;stroke-miterlimit:10;}
	.st5{clip-path:url(#SVGID_2_);fill:url(#SVGID_6_);stroke:#FFFFFF;stroke-miterlimit:10;}
	.st6{fill:#F9F9F9;stroke:#FFFFFF;stroke-miterlimit:10;}
</style>
<g>
	<g>
		<path d="M13.3,99.5c-7,0-12.8-5.8-12.8-13v-73c0-7.2,5.7-13,12.8-13h273.5c7,0,12.8,5.8,12.8,13v73c0,7.2-5.7,13-12.8,13H13.3z"/>
		<path class="st0" d="M286.7,1c6.8,0,12.3,5.6,12.3,12.5v73c0,6.9-5.5,12.5-12.3,12.5H13.3C6.5,99,1,93.4,1,86.5v-73
			C1,6.6,6.5,1,13.3,1H286.7 M286.7,0H13.3C5.9,0,0,6.1,0,13.5v73C0,93.9,5.9,100,13.3,100h273.5c7.3,0,13.3-6.1,13.3-13.5v-73
			C300,6.1,294.1,0,286.7,0L286.7,0z"/>
	</g>
	<g>
		<g>
			<path class="st1" d="M78.4,65.8c-1.6,3.5-2.3,5.1-4.4,8.2c-2.9,4.3-6.9,9.8-11.9,9.8c-4.4,0-5.6-2.9-11.6-2.8
				c-6,0-7.3,2.9-11.7,2.9c-5,0-8.8-4.9-11.6-9.3c-8-12.1-8.8-26.4-3.9-34c3.5-5.4,9-8.5,14.2-8.5c5.3,0,8.6,2.9,13,2.9
				c4.2,0,6.8-2.9,12.9-2.9c4.6,0,9.5,2.5,13,6.9C65,45.1,66.9,61.4,78.4,65.8z"/>
			<g>
				<path class="st1" d="M58.8,27.2c2.2-2.8,3.9-6.9,3.3-11c-3.6,0.2-7.9,2.6-10.3,5.6c-2.2,2.7-4.1,6.8-3.4,10.7
					C52.4,32.6,56.5,30.2,58.8,27.2z"/>
			</g>
		</g>
		<g>
			<g>
				<path class="st1" d="M102.7,40.4L91.3,74h5.2l3.4-10.3H111l3.5,10.3h5.4l-11.5-33.6H102.7z M105.5,45.9c0.4,1.5,0.8,3.1,1.3,4.7
					l3.1,8.9h-8.8l3-9C104.6,49.1,105,47.6,105.5,45.9z"/>
				<path class="st1" d="M134.7,49.1c-3.5,0-6.2,1.3-8.1,3.9l-0.2-3.3h-4.7l0,0.4c0.1,2.1,0.2,4.4,0.2,7.7v25.9h5.1V71.6
					c1.6,1.9,4.1,3,7,3c3,0,5.7-1.2,7.7-3.3c2.2-2.4,3.4-5.7,3.4-9.8c0-3.6-1-6.7-3-8.9C140.3,50.3,137.6,49.1,134.7,49.1z
					 M133.4,53.3c4.5,0,6.6,4.2,6.6,8.4c0,5.4-2.6,8.7-6.8,8.7c-2.8,0-5.3-1.9-6-4.7c-0.1-0.4-0.2-1-0.2-1.6v-4.1
					c0-0.4,0.1-0.8,0.2-1.3c0-0.1,0.1-0.3,0.1-0.4C128.1,55.3,130.6,53.3,133.4,53.3z"/>
				<path class="st1" d="M160.9,49.1c-3.5,0-6.2,1.3-8.1,3.9l-0.2-3.3H148l0,0.4c0.1,2.1,0.2,4.4,0.2,7.7v25.9h5.1V71.6
					c1.6,1.9,4.1,3,7,3c3,0,5.7-1.2,7.7-3.3c2.2-2.4,3.4-5.7,3.4-9.8c0-3.6-1-6.7-3-8.9C166.5,50.3,163.8,49.1,160.9,49.1z
					 M159.6,53.3c4.5,0,6.6,4.2,6.6,8.4c0,5.4-2.6,8.7-6.8,8.7c-2.8,0-5.3-1.9-6-4.7c-0.1-0.4-0.2-1-0.2-1.6v-4.1
					c0-0.4,0.1-0.8,0.2-1.3c0-0.1,0.1-0.3,0.1-0.4C154.3,55.3,156.8,53.3,159.6,53.3z"/>
				<path class="st1" d="M193.7,54.6c-4.8-1.8-6.3-3.3-6.3-6c0-2.3,1.8-4.5,5.8-4.5c3.3,0,5.4,1.1,6,1.5l0.4,0.3l1.4-4.2l-0.3-0.2
					c-0.9-0.5-3.3-1.7-7.4-1.7c-6.5,0-11,3.8-11,9.3c0,4.4,2.8,7.5,8.9,9.7c4.3,1.6,5.9,3.3,5.9,6.1c0,3.2-2.5,5.2-6.5,5.2
					c-2.6,0-5.3-0.8-7.3-2.1l-0.4-0.3l-1.4,4.3l0.3,0.2c1.9,1.3,5.5,2.2,8.6,2.2c8.7,0,11.8-5.3,11.8-9.9
					C202.3,59.9,199.8,57,193.7,54.6z"/>
				<path class="st1" d="M211.5,43.8l-5,1.6v4.2h-3.7v4.1h3.7v12.5c0,3,0.6,5.1,1.8,6.5c1.1,1.2,2.9,1.9,4.9,1.9
					c1.9,0,3.3-0.4,3.9-0.6l0.3-0.1l-0.2-4.1l-0.5,0.1c-0.6,0.2-1.3,0.3-2.4,0.3c-2,0-2.8-1.2-2.8-4.2V53.7h6.1v-4.1h-6.1V43.8z"/>
				<path class="st1" d="M230.2,49.1c-7.1,0-12.1,5.3-12.1,12.9c0,7.4,4.8,12.5,11.7,12.5h0c5.8,0,12.1-4.1,12.1-13
					c0-3.6-1.1-6.7-3.2-9C236.6,50.3,233.7,49.1,230.2,49.1z M230.1,53.1c4.6,0,6.7,4.5,6.7,8.6c0,5.1-2.8,8.8-6.8,8.8h0
					c-3.9,0-6.7-3.6-6.7-8.7C223.3,57.5,225.4,53.1,230.1,53.1z"/>
				<path class="st1" d="M257.6,49.3l-0.3-0.1c-0.4-0.1-0.8-0.2-1.3-0.2c-2.7,0-5.1,1.6-6.4,4.1l-0.1-3.6h-4.6l0,0.4
					c0.1,2,0.2,4.3,0.2,7.3l0,16.6h5.1V61c0-0.7,0-1.4,0.1-2c0.6-3.1,2.7-5.1,5.4-5.1c0.5,0,0.9,0,1.4,0.1l0.5,0.1V49.3z"/>
				<path class="st1" d="M269,49.1c-6.8,0-11.5,5.4-11.5,13.2c0,7.5,4.7,12.3,12,12.3c3.8,0,6.5-0.8,8.1-1.5l0.3-0.1l-1-3.8
					l-0.4,0.2c-1.4,0.6-3.2,1.1-6.4,1.1c-2.2,0-7.3-0.7-7.6-7.4l16.4,0l0.1-0.3c0.1-0.5,0.2-1.2,0.2-2.1
					C279.1,55.3,276.5,49.1,269,49.1z M268.7,52.9c1.5,0,2.8,0.5,3.7,1.4c1.5,1.5,1.7,3.7,1.8,4.7h-11.6
					C263,56.1,264.9,52.9,268.7,52.9z"/>
			</g>
			<g>
				<path class="st1" d="M91.3,17.4c1.4-0.2,3.1-0.3,4.9-0.3c3.3,0,5.6,0.7,7.2,2c1.6,1.3,2.5,3.2,2.5,5.7c0,2.6-0.9,4.7-2.5,6.2
					c-1.7,1.5-4.4,2.3-7.8,2.3c-1.7,0-3,0-4.2-0.2V17.4z M93.6,31.5c0.6,0.1,1.4,0.1,2.3,0.1c4.9,0,7.5-2.5,7.5-6.8
					c0-3.8-2.3-6.1-7.2-6.1c-1.2,0-2.1,0.1-2.7,0.2V31.5z"/>
				<path class="st1" d="M114.1,33.4c-3.4,0-6.1-2.3-6.1-5.9c0-3.8,2.8-6.1,6.3-6.1c3.6,0,6.1,2.4,6.1,5.9
					C120.4,31.5,117.1,33.4,114.1,33.4L114.1,33.4z M114.1,31.8c2.2,0,3.9-1.9,3.9-4.5c0-1.9-1.1-4.4-3.8-4.4
					c-2.7,0-3.9,2.3-3.9,4.4C110.3,29.9,111.9,31.8,114.1,31.8L114.1,31.8z"/>
				<path class="st1" d="M124,21.7l1.7,5.8c0.3,1.3,0.7,2.5,0.9,3.7h0.1c0.3-1.2,0.7-2.4,1.1-3.6l2.1-5.8h1.9l2,5.7
					c0.5,1.3,0.8,2.6,1.1,3.7h0.1c0.2-1.2,0.6-2.4,1-3.7l1.8-5.7h2.3L136,33.1h-2.1l-1.9-5.5c-0.4-1.3-0.8-2.4-1.1-3.8h-0.1
					c-0.3,1.4-0.7,2.6-1.2,3.8l-2,5.4h-2.1l-3.8-11.4H124z"/>
				<path class="st1" d="M142.4,24.8c0-1.2,0-2.1-0.1-3.1h2l0.1,1.9h0.1c0.6-1.1,2.1-2.1,4.2-2.1c1.8,0,4.5,0.9,4.5,4.9v6.8H151
					v-6.6c0-1.8-0.8-3.4-2.9-3.4c-1.5,0-2.7,1-3.1,2.1c-0.1,0.3-0.2,0.6-0.2,1v6.9h-2.3V24.8z"/>
				<path class="st1" d="M157,16.3h2.3v16.8H157V16.3z"/>
				<path class="st1" d="M168.3,33.4c-3.4,0-6.1-2.3-6.1-5.9c0-3.8,2.8-6.1,6.3-6.1c3.6,0,6.1,2.4,6.1,5.9
					C174.7,31.5,171.4,33.4,168.3,33.4L168.3,33.4z M168.4,31.8c2.2,0,3.9-1.9,3.9-4.5c0-1.9-1.1-4.4-3.8-4.4
					c-2.7,0-3.9,2.3-3.9,4.4C164.6,29.9,166.2,31.8,168.4,31.8L168.4,31.8z"/>
				<path class="st1" d="M186.5,30.4c0,1,0.1,2,0.2,2.7h-2.1l-0.2-1.4h-0.1c-0.7,0.9-2.1,1.7-3.9,1.7c-2.6,0-3.9-1.6-3.9-3.3
					c0-2.8,2.7-4.3,7.6-4.3v-0.2c0-0.9-0.3-2.7-2.9-2.6c-1.2,0-2.4,0.3-3.3,0.8l-0.5-1.4c1.1-0.6,2.6-1,4.2-1c3.9,0,4.9,2.4,4.9,4.7
					V30.4z M184.3,27.3c-2.5,0-5.4,0.4-5.4,2.6c0,1.4,1,2,2.2,2c1.7,0,2.8-0.9,3.1-1.9c0.1-0.2,0.1-0.4,0.1-0.7V27.3z"/>
				<path class="st1" d="M201.2,16.3v13.8c0,1,0,2.2,0.1,3h-2.1l-0.1-2h-0.1c-0.7,1.3-2.2,2.2-4.3,2.2c-3.1,0-5.5-2.3-5.5-5.8
					c0-3.8,2.6-6.1,5.7-6.1c2,0,3.3,0.8,3.8,1.7h0.1v-6.8H201.2z M198.9,26.3c0-0.3,0-0.6-0.1-0.9c-0.3-1.3-1.6-2.4-3.3-2.4
					c-2.4,0-3.8,1.9-3.8,4.4c0,2.3,1.3,4.3,3.8,4.3c1.5,0,3-0.9,3.4-2.5c0.1-0.3,0.1-0.6,0.1-0.9V26.3z"/>
				<path class="st1" d="M215.8,33.4c-3.4,0-6.1-2.3-6.1-5.9c0-3.8,2.8-6.1,6.3-6.1c3.7,0,6.1,2.4,6.1,5.9
					C222.1,31.5,218.8,33.4,215.8,33.4L215.8,33.4z M215.8,31.8c2.2,0,3.9-1.9,3.9-4.5c0-1.9-1.1-4.4-3.8-4.4
					c-2.7,0-3.9,2.3-3.9,4.4C212,29.9,213.6,31.8,215.8,31.8L215.8,31.8z"/>
				<path class="st1" d="M225,24.8c0-1.2,0-2.1-0.1-3.1h2l0.1,1.9h0.1c0.6-1.1,2.1-2.1,4.2-2.1c1.8,0,4.5,0.9,4.5,4.9v6.8h-2.3v-6.6
					c0-1.8-0.8-3.4-2.9-3.4c-1.5,0-2.7,1-3.1,2.1c-0.1,0.3-0.2,0.6-0.2,1v6.9H225V24.8z"/>
				<path class="st1" d="M247.9,18.9v2.7h3.3v1.6h-3.3v6.2c0,1.4,0.4,2.2,1.7,2.2c0.6,0,1,0,1.3-0.1l0.1,1.6c-0.4,0.1-1.2,0.3-2,0.3
					c-1.1,0-1.9-0.3-2.5-0.9c-0.6-0.6-0.9-1.7-0.9-3v-6.2h-2v-1.6h2v-2.1L247.9,18.9z"/>
				<path class="st1" d="M253.8,16.3h2.3v7.1h0.1c0.4-0.6,0.9-1.1,1.7-1.5c0.7-0.4,1.5-0.6,2.4-0.6c1.7,0,4.4,0.9,4.4,4.9v6.8h-2.3
					v-6.6c0-1.9-0.8-3.4-2.9-3.4c-1.5,0-2.7,0.9-3.1,2.1c-0.1,0.3-0.2,0.6-0.2,1v6.9h-2.3V16.3z"/>
				<path class="st1" d="M269.7,27.7c0.1,2.8,2,4,4.3,4c1.7,0,2.7-0.3,3.5-0.6l0.4,1.5c-0.8,0.3-2.2,0.7-4.3,0.7
					c-3.9,0-6.2-2.3-6.2-5.8c0-3.5,2.3-6.2,6-6.2c4.1,0,5.2,3.3,5.2,5.4c0,0.4,0,0.8-0.1,1L269.7,27.7z M276.5,26.3
					c0-1.3-0.6-3.4-3.2-3.4c-2.4,0-3.4,1.9-3.5,3.4H276.5z"/>
			</g>
		</g>
	</g>
</g>
<g>
	<g>
		<path d="M21.6,269.7c-7,0-12.8-5.8-12.8-13v-73c0-7.2,5.7-13,12.8-13h273.5c7,0,12.8,5.8,12.8,13v73c0,7.2-5.7,13-12.8,13H21.6z"
			/>
		<path class="st0" d="M295.1,171.2c6.8,0,12.3,5.6,12.3,12.5v73c0,6.9-5.5,12.5-12.3,12.5H21.6c-6.8,0-12.3-5.6-12.3-12.5v-73
			c0-6.9,5.5-12.5,12.3-12.5H295.1 M295.1,170.2H21.6c-7.3,0-13.3,6.1-13.3,13.5v73c0,7.5,5.9,13.5,13.3,13.5h273.5
			c7.3,0,13.3-6.1,13.3-13.5v-73C308.4,176.3,302.4,170.2,295.1,170.2L295.1,170.2z"/>
	</g>
	<g>
		<g id="PLAY_1_">
			<defs>
				<path id="SVGID_1_" d="M68.6,211.2l-13.5-7.8c0,0-24.6-14.2-26.1-15.1c-1.4-0.8-2.9-0.3-2.9,1.4c0,2.9,0,30.4,0,30.4
					s0,29.7,0,31c0,1.3,1,1.9,2.3,1.1c1.3-0.7,26.7-15.4,26.7-15.4l13.5-7.8c0,0,11.5-6.6,13-7.5c1.5-0.9,1.4-2.1,0.1-2.8
					C80.4,218.1,68.6,211.2,68.6,211.2z"/>
			</defs>
			<clipPath id="SVGID_2_">
				<use xlink:href="#SVGID_1_"  style="overflow:visible;"/>
			</clipPath>
			<linearGradient id="SVGID_3_" gradientUnits="userSpaceOnUse" x1="42.823" y1="186.9309" x2="42.823" y2="253.3867">
				<stop  offset="0" style="stop-color:#257DB0"/>
				<stop  offset="0.208" style="stop-color:#3C90B3"/>
				<stop  offset="0.7416" style="stop-color:#73BDB9"/>
				<stop  offset="1" style="stop-color:#89CEBC"/>
			</linearGradient>
			<polygon class="st2" points="26.1,186.9 26.1,220.2 26.1,253.4 59.6,220.2 			"/>
			<linearGradient id="SVGID_4_" gradientUnits="userSpaceOnUse" x1="26.0676" y1="203.4243" x2="68.5792" y2="203.4243">
				<stop  offset="0" style="stop-color:#51BFAC"/>
				<stop  offset="1" style="stop-color:#DEE899"/>
			</linearGradient>
			<polygon class="st3" points="68.6,211.2 55.1,203.4 26.1,186.7 26.1,186.9 59.6,220.2 			"/>
			<linearGradient id="SVGID_5_" gradientUnits="userSpaceOnUse" x1="47.3231" y1="220.1594" x2="47.3231" y2="253.6284">
				<stop  offset="0" style="stop-color:#EB403D"/>
				<stop  offset="0.1937" style="stop-color:#D64252"/>
				<stop  offset="0.7369" style="stop-color:#9F4887"/>
				<stop  offset="1" style="stop-color:#894A9C"/>
			</linearGradient>
			<polygon class="st4" points="26.1,253.4 26.1,253.6 55.1,236.9 68.6,229.1 59.6,220.2 			"/>
			<linearGradient id="SVGID_6_" gradientUnits="userSpaceOnUse" x1="71.8081" y1="211.2342" x2="71.8081" y2="229.0834">
				<stop  offset="0" style="stop-color:#F48779"/>
				<stop  offset="0.6121" style="stop-color:#FAB076"/>
				<stop  offset="1" style="stop-color:#FDC674"/>
			</linearGradient>
			<polygon class="st5" points="68.6,211.2 59.6,220.2 68.6,229.1 84,220.2 			"/>
			<use xlink:href="#SVGID_1_"  style="overflow:visible;fill:none;stroke:#FFFFFF;stroke-miterlimit:10;"/>
		</g>
		<g>
			<path class="st6" d="M237,233.1c-1.3,0-2.4-0.2-3.4-0.7c-1-0.5-1.9-1.2-2.6-2.1h-0.2c0.1,1.1,0.2,2.2,0.2,3.2v8H228v-28h2.4
				l0.4,2.6h0.1c0.8-1.1,1.6-1.8,2.6-2.3c1-0.5,2.1-0.7,3.4-0.7c2.6,0,4.5,0.9,5.9,2.6c1.4,1.8,2.1,4.2,2.1,7.4
				c0,3.2-0.7,5.6-2.1,7.4C241.5,232.3,239.6,233.1,237,233.1z M236.6,215.6c-2,0-3.4,0.5-4.3,1.6c-0.9,1.1-1.3,2.8-1.4,5.2v0.7
				c0,2.7,0.5,4.7,1.4,5.8c0.9,1.2,2.4,1.8,4.4,1.8c1.7,0,3-0.7,3.9-2c0.9-1.4,1.4-3.2,1.4-5.6c0-2.4-0.5-4.3-1.4-5.5
				C239.7,216.2,238.3,215.6,236.6,215.6z"/>
			<path class="st6" d="M251.8,232.8h-2.9v-27.4h2.9V232.8z"/>
			<path class="st6" d="M268.7,232.8l-0.6-2.8h-0.1c-1,1.2-1.9,2-2.9,2.5c-1,0.4-2.2,0.6-3.6,0.6c-1.9,0-3.4-0.5-4.5-1.5
				c-1.1-1-1.6-2.4-1.6-4.2c0-3.9,3.1-5.9,9.4-6.1l3.3-0.1V220c0-1.5-0.3-2.6-1-3.4c-0.7-0.7-1.7-1.1-3.1-1.1
				c-1.6,0-3.4,0.5-5.5,1.5l-0.9-2.2c1-0.5,2-0.9,3.1-1.2c1.1-0.3,2.3-0.4,3.4-0.4c2.3,0,4,0.5,5.1,1.5c1.1,1,1.7,2.7,1.7,4.9v13.2
				H268.7z M262.1,230.7c1.8,0,3.3-0.5,4.3-1.5c1-1,1.6-2.4,1.6-4.2v-1.7l-2.9,0.1c-2.3,0.1-4,0.4-5,1.1c-1,0.6-1.5,1.6-1.5,3
				c0,1.1,0.3,1.9,1,2.4C260,230.5,260.9,230.7,262.1,230.7z"/>
			<path class="st6" d="M272.5,213.5h3.1l4.2,11c0.9,2.5,1.5,4.3,1.7,5.4h0.1c0.2-0.6,0.5-1.6,1-3.1c0.5-1.5,2.1-5.9,4.8-13.4h3.1
				l-8.3,22c-0.8,2.2-1.8,3.7-2.9,4.6c-1.1,0.9-2.4,1.4-4,1.4c-0.9,0-1.8-0.1-2.6-0.3v-2.3c0.6,0.1,1.4,0.2,2.2,0.2
				c2,0,3.4-1.1,4.3-3.4l1.1-2.8L272.5,213.5z"/>
		</g>
		<g>
			<path class="st6" d="M182.8,215.3c0.9,0.8,2.9,2.4,2.9,5.5c0,3-1.7,4.4-3.4,5.7c-0.5,0.5-1.1,1.1-1.1,2c0,0.9,0.6,1.4,1.1,1.7
				l1.5,1.1c1.8,1.5,3.4,2.9,3.4,5.7c0,3.8-3.7,7.6-10.6,7.6c-5.9,0-8.7-2.8-8.7-5.8c0-1.5,0.7-3.5,3.1-4.9c2.5-1.5,5.9-1.7,7.7-1.9
				c-0.6-0.7-1.2-1.5-1.2-2.7c0-0.7,0.2-1.1,0.4-1.6c-0.4,0-0.9,0.1-1.3,0.1c-4.3,0-6.7-3.2-6.7-6.3c0-1.9,0.9-3.9,2.6-5.4
				c2.3-1.9,5.1-2.2,7.2-2.2h8.3l-2.6,1.5H182.8z M179.9,233.2c-0.3,0-0.5,0-0.9,0c-0.4,0-2.5,0.1-4.2,0.7c-0.9,0.3-3.5,1.3-3.5,4.2
				c0,2.9,2.8,4.9,7.1,4.9c3.9,0,5.9-1.9,5.9-4.4C184.4,236.5,183,235.4,179.9,233.2z M181.1,225.5c0.9-0.9,1-2.2,1-3
				c0-2.9-1.7-7.4-5.1-7.4c-1.1,0-2.2,0.5-2.8,1.3c-0.7,0.8-0.9,1.9-0.9,3c0,2.7,1.6,7.2,5.1,7.2
				C179.4,226.7,180.5,226.2,181.1,225.5z"/>
			<path class="st6" d="M157.4,232.6c-6.4,0-9.8-5-9.8-9.5c0-5.3,4.3-9.8,10.5-9.8c5.9,0,9.6,4.6,9.6,9.5
				C167.6,227.5,163.9,232.6,157.4,232.6z M162.4,229.3c1-1.3,1.2-2.9,1.2-4.5c0-3.6-1.7-10.3-6.7-10.3c-1.3,0-2.7,0.5-3.6,1.4
				c-1.6,1.4-1.9,3.2-1.9,4.9c0,4,2,10.6,6.9,10.6C159.9,231.4,161.5,230.6,162.4,229.3z"/>
			<path class="st6" d="M135.5,232.6c-6.4,0-9.8-5-9.8-9.5c0-5.3,4.3-9.8,10.5-9.8c5.9,0,9.6,4.6,9.6,9.5
				C145.7,227.5,142.1,232.6,135.5,232.6z M140.5,229.3c1-1.3,1.2-2.9,1.2-4.5c0-3.6-1.7-10.3-6.7-10.3c-1.3,0-2.7,0.5-3.6,1.4
				c-1.6,1.4-1.9,3.2-1.9,4.9c0,4,2,10.6,6.9,10.6C138,231.4,139.6,230.6,140.5,229.3z"/>
			<path class="st6" d="M122.6,231.9l-5.8,1.3c-2.4,0.4-4.5,0.7-6.7,0.7c-11.2,0-15.5-8.2-15.5-14.7c0-7.9,6-15.2,16.4-15.2
				c2.2,0,4.3,0.3,6.2,0.9c3,0.9,4.5,1.9,5.4,2.5l-3.4,3.2l-1.4,0.3l1-1.6c-1.4-1.3-3.9-3.8-8.7-3.8c-6.4,0-11.2,4.9-11.2,12
				c0,7.6,5.5,14.8,14.4,14.8c2.6,0,3.9-0.5,5.2-1v-6.5l-6.1,0.3l3.2-1.7h8.6l-1.1,1c-0.3,0.2-0.3,0.3-0.4,0.6
				c0,0.4-0.1,1.5-0.1,1.9V231.9z"/>
			<path class="st6" d="M195.6,230.8c-1.3-0.1-1.6-0.4-1.6-1.9v-0.4v-22.5c0-0.1,0-0.2,0-0.3c0.2-1.4,0.6-1.7,1.8-2.4h-5.8l-3,1.5
				h3.1v0l0,0v23.7v1.3c0,0.8-0.2,0.9-1.1,2.1h7.2l1.5-0.9C197,230.9,196.3,230.8,195.6,230.8z"/>
			<path class="st6" d="M212.2,231.1c-0.4,0.2-0.9,0.5-1.3,0.7c-1.3,0.6-2.7,0.8-3.9,0.8c-1.3,0-3.3-0.1-5.4-1.6
				c-2.9-2-4.1-5.5-4.1-8.5c0-6.2,5.1-9.3,9.2-9.3c1.5,0,2.9,0.4,4.2,1.1c2,1.3,2.5,3.1,2.8,4l-9.5,3.8l-3.1,0.2
				c1,5.1,4.5,8.1,8.3,8.1c2.1,0,3.5-0.7,4.9-1.4L212.2,231.1z M208.4,219.1c0.8-0.3,1.2-0.5,1.2-1.1c0-1.6-1.8-3.5-4-3.5
				c-1.6,0-4.6,1.2-4.6,5.6c0,0.7,0.1,1.4,0.1,2.1L208.4,219.1z"/>
			<g>
				<path class="st6" d="M216,213.5v2.7h-0.3v-2.7h-0.9v-0.3h2.1v0.3H216z"/>
				<path class="st6" d="M219.7,216.2v-2.7h0l-0.8,2.7h-0.3l-0.8-2.7h0v2.7h-0.3v-2.9h0.5l0.7,2.4h0l0.7-2.4h0.5v2.9H219.7z"/>
			</g>
		</g>
		<g>
			<path class="st6" d="M102.7,196.2h-2c0-0.3-0.2-1.1-0.6-2.4h-2.9c-0.4,1.3-0.6,2.1-0.6,2.4h-1.9c0-0.2,0.5-1.5,1.5-4
				c1-2.5,1.5-3.9,1.5-4.2h2.4c0,0.2,0.4,1.6,1.3,4.1C102.2,194.6,102.7,196,102.7,196.2z M99.8,192.6c-0.7-2.2-1.1-3.3-1.1-3.5
				h-0.1c0,0.2-0.4,1.3-1.1,3.5H99.8z"/>
			<path class="st6" d="M110.8,196.2h-1.6c0-0.2-0.6-1.1-1.7-2.7c-1.2-1.7-1.9-2.9-2.1-3.6h-0.1c0.1,0.9,0.2,1.8,0.2,2.5
				c0,1,0,2.3,0.1,3.8H104c0.1-1.3,0.1-2.7,0.1-4.3c0-1.5,0-2.8-0.1-3.9h1.9c0,0.2,0.5,1.1,1.6,2.7c1.1,1.7,1.7,2.8,1.9,3.4h0.1
				c-0.1-0.9-0.2-1.8-0.2-2.5c0-1.1,0-2.3-0.1-3.5h1.6c-0.1,1-0.1,2.3-0.1,3.9C110.7,193.5,110.7,194.9,110.8,196.2z"/>
			<path class="st6" d="M119.9,191.8c0,1.2-0.4,2.2-1.1,3.1c-0.8,0.9-1.8,1.3-3.2,1.3c-0.6,0-1.5,0-2.6-0.1c0.1-1.3,0.1-2.7,0.1-4.3
				c0-1.5,0-2.8-0.1-3.9h1.1c0.2,0,0.4,0,0.8,0c0.4,0,0.6,0,0.7,0c1.5,0,2.6,0.4,3.3,1.1C119.6,189.8,119.9,190.8,119.9,191.8z
				 M118.2,192.1c0-0.8-0.2-1.5-0.7-2c-0.5-0.6-1.2-0.8-2.2-0.8c-0.2,0-0.4,0-0.7,0.1c0,0.8,0.1,1.7,0.1,2.6c0,1,0,2,0.1,3
				c0.3,0.1,0.5,0.1,0.8,0.1c0.9,0,1.6-0.3,2-0.8C118,193.6,118.2,192.9,118.2,192.1z"/>
			<path class="st6" d="M128.3,196.2h-1.9c-0.5-1.5-0.9-2.4-1.1-2.8c-0.3-0.3-0.7-0.5-1.3-0.5c-0.2,0-0.5,0-0.7,0
				c0,1.1,0,2.2,0.1,3.3h-1.8c0.1-1.3,0.1-2.7,0.1-4.3c0-1.5,0-2.8-0.1-3.9h1.1c0.1,0,0.4,0,0.8,0c0.4,0,0.8,0,1.1,0
				c1.9,0,2.9,0.7,2.9,2c0,1-0.6,1.8-1.7,2.2v0.1c0.4,0.1,0.8,0.4,1.1,1C127.4,193.8,127.8,194.8,128.3,196.2z M126,190.4
				c0-0.8-0.5-1.3-1.6-1.3c-0.4,0-0.7,0-1,0.1c0,0.7,0.1,1.5,0.1,2.5c0.2,0,0.4,0,0.6,0C125.3,191.8,126,191.3,126,190.4z"/>
			<path class="st6" d="M137.4,191.9c0,1.3-0.4,2.4-1.2,3.2c-0.8,0.8-1.8,1.3-2.9,1.3c-1.1,0-2-0.4-2.8-1.2c-0.7-0.8-1.1-1.8-1.1-3
				c0-1.3,0.4-2.4,1.2-3.2c0.8-0.8,1.8-1.3,2.9-1.3c1.1,0,2,0.4,2.8,1.2C137,189.8,137.4,190.7,137.4,191.9z M135.6,192.1
				c0-0.9-0.2-1.6-0.7-2.1c-0.4-0.5-1-0.8-1.7-0.8c-0.6,0-1.1,0.3-1.6,0.8c-0.4,0.6-0.6,1.2-0.6,2.1c0,0.9,0.2,1.6,0.7,2.1
				c0.5,0.5,1,0.8,1.7,0.8c0.6,0,1.1-0.3,1.6-0.8C135.4,193.7,135.6,193,135.6,192.1z"/>
			<path class="st6" d="M140.9,196.2h-1.8c0.1-1.3,0.1-2.7,0.1-4.3c0-1.5,0-2.8-0.1-3.9h1.8c-0.1,1.1-0.1,2.4-0.1,3.9
				C140.9,193.5,140.9,194.9,140.9,196.2z"/>
			<path class="st6" d="M150.1,191.8c0,1.2-0.4,2.2-1.1,3.1c-0.8,0.9-1.8,1.3-3.2,1.3c-0.6,0-1.5,0-2.6-0.1c0.1-1.3,0.1-2.7,0.1-4.3
				c0-1.5,0-2.8-0.1-3.9h1.1c0.2,0,0.4,0,0.8,0c0.4,0,0.6,0,0.7,0c1.5,0,2.6,0.4,3.3,1.1C149.7,189.8,150.1,190.8,150.1,191.8z
				 M148.3,192.1c0-0.8-0.2-1.5-0.7-2c-0.5-0.6-1.2-0.8-2.2-0.8c-0.2,0-0.4,0-0.7,0.1c0,0.8,0.1,1.7,0.1,2.6c0,1,0,2,0.1,3
				c0.3,0.1,0.5,0.1,0.8,0.1c0.9,0,1.6-0.3,2-0.8C148.1,193.6,148.3,192.9,148.3,192.1z"/>
			<path class="st6" d="M162.2,196.2h-2c0-0.3-0.2-1.1-0.6-2.4h-2.9c-0.4,1.3-0.6,2.1-0.6,2.4h-1.9c0-0.2,0.5-1.5,1.5-4
				c1-2.5,1.5-3.9,1.5-4.2h2.4c0,0.2,0.4,1.6,1.3,4.1C161.7,194.6,162.2,196,162.2,196.2z M159.3,192.6c-0.7-2.2-1.1-3.3-1.1-3.5
				h-0.1c0,0.2-0.4,1.3-1.1,3.5H159.3z"/>
			<path class="st6" d="M169.5,190.1c0,1-0.4,1.7-1.1,2.2c-0.7,0.5-1.7,0.7-2.7,0.7c-0.2,0-0.3,0-0.4,0c0,0.8,0,1.8,0.1,3.1h-1.8
				c0.1-1.2,0.1-2.6,0.1-4.3c0-1.5,0-2.8-0.1-3.9h1.1c0.2,0,0.5,0,0.9,0c0.4,0,0.8,0,1.1,0c0.8,0,1.5,0.2,2,0.5
				C169.3,188.9,169.5,189.4,169.5,190.1z M167.9,190.5c0-0.9-0.6-1.3-1.8-1.3c-0.3,0-0.6,0-0.9,0.1c0,0.8,0.1,1.7,0.1,2.7
				c0.1,0,0.2,0,0.4,0C167.1,191.9,167.9,191.5,167.9,190.5z"/>
			<path class="st6" d="M177.1,190.1c0,1-0.4,1.7-1.1,2.2c-0.7,0.5-1.7,0.7-2.7,0.7c-0.2,0-0.3,0-0.4,0c0,0.8,0,1.8,0.1,3.1h-1.8
				c0.1-1.2,0.1-2.6,0.1-4.3c0-1.5,0-2.8-0.1-3.9h1.1c0.2,0,0.5,0,0.9,0c0.4,0,0.8,0,1.1,0c0.8,0,1.5,0.2,2,0.5
				S177.1,189.4,177.1,190.1z M175.5,190.5c0-0.9-0.6-1.3-1.8-1.3c-0.3,0-0.6,0-0.9,0.1c0,0.8,0.1,1.7,0.1,2.7c0.1,0,0.2,0,0.4,0
				C174.7,191.9,175.5,191.5,175.5,190.5z"/>
			<path class="st6" d="M189.4,191.9c0,1.3-0.4,2.4-1.2,3.2s-1.8,1.3-2.9,1.3c-1.1,0-2-0.4-2.8-1.2c-0.7-0.8-1.1-1.8-1.1-3
				c0-1.3,0.4-2.4,1.2-3.2c0.8-0.8,1.8-1.3,2.9-1.3c1.1,0,2,0.4,2.8,1.2C189.1,189.8,189.4,190.7,189.4,191.9z M187.7,192.1
				c0-0.9-0.2-1.6-0.7-2.1s-1-0.8-1.7-0.8c-0.6,0-1.1,0.3-1.6,0.8c-0.4,0.6-0.6,1.2-0.6,2.1c0,0.9,0.2,1.6,0.7,2.1
				c0.5,0.5,1,0.8,1.7,0.8c0.6,0,1.1-0.3,1.6-0.8C187.5,193.7,187.7,193,187.7,192.1z"/>
			<path class="st6" d="M198,196.2h-1.6c0-0.2-0.6-1.1-1.7-2.7c-1.2-1.7-1.9-2.9-2.1-3.6h-0.1c0.1,0.9,0.2,1.8,0.2,2.5
				c0,1,0,2.3,0.1,3.8h-1.5c0.1-1.3,0.1-2.7,0.1-4.3c0-1.5,0-2.8-0.1-3.9h1.9c0,0.2,0.5,1.1,1.6,2.7c1.1,1.7,1.7,2.8,1.9,3.4h0.1
				c-0.1-0.9-0.2-1.8-0.2-2.5c0-1.1,0-2.3-0.1-3.5h1.6c-0.1,1-0.1,2.3-0.1,3.9C197.9,193.5,197.9,194.9,198,196.2z"/>
		</g>
	</g>
</g>
</svg>
