<?xml version="1.0" encoding="utf-8"?>
<!-- Generator: Adobe Illustrator 24.2.3, SVG Export Plug-In . SVG Version: 6.00 Build 0)  -->
<svg version="1.1" id="Layer_1" xmlns="http://www.w3.org/2000/svg" xmlns:xlink="http://www.w3.org/1999/xlink" x="0px" y="0px"
	 viewBox="0 0 200 124" style="enable-background:new 0 0 200 124;" xml:space="preserve">
<style type="text/css">
	.st0{fill:#FFFFFF;}
	.st1{fill:#9FC54D;}
	.st2{fill:url(#Ellipse_492_1_);}
	.st3{fill:url(#Ellipse_497_1_);}
	.st4{opacity:0.7;}
	.st5{fill:#3B6E46;}
	.st6{opacity:0.48;fill:#3B6E46;enable-background:new    ;}
	.st7{opacity:0.7;fill:#3B6E46;enable-background:new    ;}
</style>
<g id="Group_4257" transform="translate(6082 -5694)">
	<g id="Group_4256" transform="translate(-6082 5694)">
		<circle id="Ellipse_490" class="st0" cx="138.4" cy="62" r="61.6"/>
		<circle id="Ellipse_491" class="st1" cx="61.6" cy="62" r="61.6"/>
		
			<linearGradient id="Ellipse_492_1_" gradientUnits="userSpaceOnUse" x1="-196.069" y1="482.4828" x2="-196.5671" y2="482.9831" gradientTransform="matrix(117.23 0 0 -117.196 23155.1797 56638.8945)">
			<stop  offset="0" style="stop-color:#FFFFFF"/>
			<stop  offset="1" style="stop-color:#FFFFFF;stop-opacity:0"/>
		</linearGradient>
		<ellipse id="Ellipse_492" class="st2" cx="138.3" cy="62" rx="61.5" ry="61.5"/>
		
			<linearGradient id="Ellipse_497_1_" gradientUnits="userSpaceOnUse" x1="-196.069" y1="482.4828" x2="-196.5671" y2="482.9831" gradientTransform="matrix(117.23 0 0 -117.196 23155.1797 56638.8945)">
			<stop  offset="0" style="stop-color:#FFFFFF"/>
			<stop  offset="1" style="stop-color:#FFFFFF;stop-opacity:0"/>
		</linearGradient>
		<ellipse id="Ellipse_497" class="st3" cx="138.3" cy="62" rx="61.5" ry="61.5"/>
		<g id="Group_4250" transform="translate(19.128 39.947)">
			<g id="Group_4253" transform="translate(73.284 18.777)" class="st4">
				<g id="Group_4252" transform="translate(0 0)">
					<path id="Path_13818" class="st5" d="M28.7,26.1c-4.1,0-12.8-0.7-18.5-6c-3.7-3.4-5.6-8.1-5.6-13.8c0-1.7,1.4-3.1,3.1-3.1
						s3.1,1.4,3.1,3.1c0,4,1.2,7,3.6,9.2c5.6,5.2,16.1,4.3,16.2,4.3l0.3,0h40.2c8.3,0,10.4-10.7,10.5-11.2C81.7,7,83.3,5.9,85,6.2
						c1.7,0.3,2.8,1.9,2.5,3.6c-1,5.6-5.8,16.2-16.6,16.2h-40C30.6,26.1,29.8,26.1,28.7,26.1z"/>
					<path id="Path_13819" class="st6" d="M10.7,6.6c0,0,0.7,7.8-2,11.9c-0.7-0.8-1.3-1.7-1.8-2.5c0-0.4,0.8-7.9,0.8-7.9L10.7,6.6z"
						/>
				</g>
			</g>
			<g id="Group_4254" transform="translate(0 18.777)">
				<path id="Path_13820" class="st0" d="M59.8,26.1c-1.1,0-1.9,0-2.2-0.1h-40C6.8,26.1,2,15.4,1,9.8C0.7,8.1,1.8,6.5,3.5,6.2
					C5.1,5.9,6.8,7,7.1,8.7l0,0c0.1,0.5,2.2,11.2,10.5,11.2h40.3l0.1,0c0.1,0,10.5,0.9,16.2-4.3c2.4-2.2,3.6-5.2,3.6-9.2
					c0-1.7,1.4-3.1,3.1-3.1s3.1,1.4,3.1,3.1c0,5.7-1.9,10.4-5.6,13.8C72.5,25.4,63.9,26.1,59.8,26.1z"/>
			</g>
			<circle id="Ellipse_493" class="st7" cx="111.4" cy="8.2" r="5.8"/>
			<circle id="Ellipse_494" class="st7" cx="127" cy="8.2" r="5.8"/>
			<circle id="Ellipse_495" class="st0" cx="34.8" cy="8.2" r="5.8"/>
			<circle id="Ellipse_496" class="st0" cx="50.4" cy="8.2" r="5.8"/>
		</g>
	</g>
</g>
</svg>
